<svg width="15" height="18" viewBox="0 0 15 18" fill="none" xmlns="http://www.w3.org/2000/svg">
<path d="M10.5 10.1786C9.53906 10.1786 9.07701 10.7143 7.5 10.7143C5.92299 10.7143 5.46429 10.1786 4.5 10.1786C2.01562 10.1786 0 12.1942 0 14.6786V15.5357C0 16.423 0.719866 17.1429 1.60714 17.1429H13.3929C14.2801 17.1429 15 16.423 15 15.5357V14.6786C15 12.1942 12.9844 10.1786 10.5 10.1786ZM13.3929 15.5357H1.60714V14.6786C1.60714 13.0848 2.90625 11.7857 4.5 11.7857C4.98884 11.7857 5.78237 12.3214 7.5 12.3214C9.23103 12.3214 10.0078 11.7857 10.5 11.7857C12.0938 11.7857 13.3929 13.0848 13.3929 14.6786V15.5357ZM7.5 9.64286C10.1618 9.64286 12.3214 7.48326 12.3214 4.82143C12.3214 2.1596 10.1618 0 7.5 0C4.83817 0 2.67857 2.1596 2.67857 4.82143C2.67857 7.48326 4.83817 9.64286 7.5 9.64286ZM7.5 1.60714C9.2712 1.60714 10.7143 3.05022 10.7143 4.82143C10.7143 6.59264 9.2712 8.03572 7.5 8.03572C5.72879 8.03572 4.28571 6.59264 4.28571 4.82143C4.28571 3.05022 5.72879 1.60714 7.5 1.60714Z" fill="#6368D9"/>
</svg>
