<svg width="20" height="20" viewBox="0 0 20 20" fill="none" xmlns="http://www.w3.org/2000/svg">
<path d="M16.4286 0C18.3221 0 19.8715 1.47363 19.9924 3.33661L20 3.57143V16.4286C20 18.3221 18.5264 19.8715 16.6634 19.9924L16.4286 20H3.57143C1.67788 20 0.128516 18.5264 0.0075967 16.6634L0 16.4286V3.57143C0 1.67788 1.47363 0.128516 3.33661 0.0075967L3.57143 0H16.4286ZM18.5714 5.71429H1.42857V16.4286C1.42857 17.5424 2.27841 18.4578 3.36506 18.5616L3.57143 18.5714H16.4286C17.5424 18.5714 18.4578 17.7216 18.5616 16.6349L18.5714 16.4286V5.71429ZM5.71429 12.8571C6.50326 12.8571 7.14286 13.4967 7.14286 14.2857C7.14286 15.0747 6.50326 15.7143 5.71429 15.7143C4.92531 15.7143 4.28571 15.0747 4.28571 14.2857C4.28571 13.4967 4.92531 12.8571 5.71429 12.8571ZM10 12.8571C10.789 12.8571 11.4286 13.4967 11.4286 14.2857C11.4286 15.0747 10.789 15.7143 10 15.7143C9.21101 15.7143 8.57143 15.0747 8.57143 14.2857C8.57143 13.4967 9.21101 12.8571 10 12.8571ZM5.71429 8.57143C6.50326 8.57143 7.14286 9.21101 7.14286 10C7.14286 10.789 6.50326 11.4286 5.71429 11.4286C4.92531 11.4286 4.28571 10.789 4.28571 10C4.28571 9.21101 4.92531 8.57143 5.71429 8.57143ZM10 8.57143C10.789 8.57143 11.4286 9.21101 11.4286 10C11.4286 10.789 10.789 11.4286 10 11.4286C9.21101 11.4286 8.57143 10.789 8.57143 10C8.57143 9.21101 9.21101 8.57143 10 8.57143ZM14.2857 8.57143C15.0747 8.57143 15.7143 9.21101 15.7143 10C15.7143 10.789 15.0747 11.4286 14.2857 11.4286C13.4967 11.4286 12.8571 10.789 12.8571 10C12.8571 9.21101 13.4967 8.57143 14.2857 8.57143ZM16.4286 1.42857H3.57143C2.45757 1.42857 1.54222 2.27841 1.43838 3.36506L1.42857 3.57143V4.28571H18.5714V3.57143C18.5714 2.45757 17.7216 1.54222 16.6349 1.43838L16.4286 1.42857Z" fill="#D1D0F9"/>
</svg>
